<?xml version="1.0" encoding="UTF-8"?>
<!DOCTYPE svg PUBLIC "-//W3C//DTD SVG 1.1//EN" "http://www.w3.org/Graphics/SVG/1.1/DTD/svg11.dtd">
<!-- Creator: CorelDRAW 2017 -->
<svg xmlns="http://www.w3.org/2000/svg" xml:space="preserve" width="304.8mm" height="40.5694mm" version="1.1" style="shape-rendering:geometricPrecision; text-rendering:geometricPrecision; image-rendering:optimizeQuality; fill-rule:evenodd; clip-rule:evenodd"
viewBox="0 0 30480 4056.94"
 xmlns:xlink="http://www.w3.org/1999/xlink">
 <defs>
  <style type="text/css">
   <![CDATA[
    .fil1 {fill:#FEFEFE}
    .fil0 {fill:#FEFEFE;fill-rule:nonzero}
   ]]>
  </style>
 </defs>
 <g id="Слой_x0020_1">
  <metadata id="CorelCorpID_0Corel-Layer"/>
  <path class="fil0" d="M27520.34 1329.68c-188.67,1001.9 -1226.82,1173.81 -1651.6,1207.37 -424.78,33.62 -301.88,-234.82 -301.88,-234.82 0,0 470.54,-1245.13 544.9,-1450.5 63.19,-174.48 142.49,-314.4 285.05,-314.4 142.56,0 180.23,0 326.99,0 146.79,0 482.1,29.36 666.57,222.19 184.43,192.85 129.97,570.16 129.97,570.16zm964.31 -715.41c-458.4,-559.03 -1484.66,-503.18 -1484.66,-503.18l-1623.2 0 -1073.15 2861.9 1609.76 0c0,0 1073.36,44.65 1788.76,-447.18 715.4,-491.88 1240.93,-1352.58 782.49,-1911.54z"/>
  <path class="fil0" d="M29008.53 1141.02l-171.84 400.81c0,0 238.94,0 331.15,0 92.25,0 109.01,110.61 54.51,257.35 -54.51,146.72 -477.91,1299.56 -477.91,1299.56 0,0 -138.36,318.6 -549.17,410.87 -410.84,92.25 -578.56,83.85 -809.1,83.85 -67.06,159.28 -197.06,463.48 -197.06,463.48 0,0 628.86,0 1010.36,0 381.46,0 1207.31,-157.51 1454.68,-740.2 247.37,-582.7 825.85,-2175.72 825.85,-2175.72l-1471.47 0z"/>
  <path class="fil1" d="M-0 2961.9l996.36 0 626.69 -1717.66c0,0 145.52,-587.22 1128.66,-587.22 903.98,0 831.91,329.8 831.91,382.51 0,52.95 -59.98,343.2 -765.88,343.2 -705.83,0 -1022.85,-119.13 -1022.85,-119.13l151.93 726.3c0,0 682,92.6 989.82,92.6 270.95,0 1636.88,-152.34 1636.88,-1109.11 0,-607.25 -818.77,-996.47 -1802.01,-996.47 -1148.22,0.04 -1802.58,439.78 -2091.52,1161.79l-679.99 1823.19 0 0z"/>
  <polygon class="fil1" points="4797.88,1260.64 4164.19,2961.9 5094.78,2961.9 5728.16,1260.64 4797.88,1260.64 "/>
  <path class="fil1" d="M7358.24 1706.02c-224.37,0 -692.79,125.54 -692.82,415.82 0.03,290.49 415.57,389.51 659.83,389.51 244.23,0 732.72,-119.31 732.72,-409.14 0,-290.33 -442.31,-396.19 -699.73,-396.19l0 0zm1689.66 362.97c0,683.58 -1142.36,983.58 -1801.84,983.58 -323.54,0 -1570.39,-178.39 -1570.39,-910.95 0,-732.26 1241.46,-969.93 1742.19,-969.93 560.39,-0.05 1630.04,213.83 1630.04,897.3l0 0z"/>
  <path class="fil1" d="M8988.39 2961.9l910.66 0 369.61 -985.23c25.08,-81.93 151.9,-283.6 547.72,-283.6 459.49,0 403.4,279.42 376.24,349.7l-336.66 919.13 897.57 0 349.61 -945.68c0,0 290.47,-831.35 -1095.2,-831.3 -1418.88,-0.05 -1623.38,725.6 -1623.38,725.6l-396.17 1051.38 0 0z"/>
  <path class="fil1" d="M14023.83 1184.87c-633.97,0.05 -1715.77,264.22 -1715.77,1009.48 0,633.81 1180.26,864.56 1537.13,864.56 937.22,0 1353.43,-144.87 1353.43,-144.87l191.31 -528.1c0,0 -541.02,197.96 -1313.18,197.96 -1174.96,0 -1089.17,-495.06 -1089.17,-495.06 0,0 323.61,264.17 1108.96,264.17 785.5,0 1471.65,-165.09 1471.65,-481.76 0,-316.88 -669.29,-686.38 -1544.36,-686.38l0 0zm92.22 448.83c534.46,0 554.5,164.88 554.5,164.88 0,0 99.2,111.94 -501.55,111.94 -600.88,0 -838.02,-145.15 -838.02,-145.15 0,0 309.98,-131.67 785.07,-131.67l0 0z"/>
  <path class="fil1" d="M18927.09 2961.9l904.38 0 329.78 -919.13c0,0 66.08,-257.42 303.53,-257.42 237.49,0 706.08,0 706.08,0l171.7 -524.75 -1273.7 0.04c0,0 -514.78,30.11 -739.11,597.52 -224.5,567.15 -402.66,1103.74 -402.66,1103.74l0 0z"/>
  <path class="fil1" d="M16752.61 1777.54c0,0 237.49,145.25 837.98,145.25 600.96,0 501.76,-112.22 501.76,-112.22 0,0 -20.14,-164.84 -554.6,-164.84 -475.23,0 -785.14,131.81 -785.14,131.81l0 0zm2237.31 105.97c0,316.61 -686.33,481.69 -1471.75,481.69 -785.46,0 -1108.78,-264.17 -1108.78,-264.17 0,0 -85.9,494.86 1089.02,494.86 772.23,0 1313.32,-197.68 1313.32,-197.68l-191.48 527.85c0,0 -415.96,144.98 -1353.44,144.98 -356.69,0 -1536.98,-230.76 -1536.98,-864.51 0,-745.29 1081.62,-1009.42 1715.45,-1009.42 875.25,0 1544.64,369.38 1544.64,686.4l0 0z"/>
 </g>
</svg>
